<?xml version="1.0" encoding="UTF-8" standalone="no"?>
<svg
   xmlns:dc="http://purl.org/dc/elements/1.1/"
   xmlns:cc="http://creativecommons.org/ns#"
   xmlns:rdf="http://www.w3.org/1999/02/22-rdf-syntax-ns#"
   xmlns:svg="http://www.w3.org/2000/svg"
   xmlns="http://www.w3.org/2000/svg"
   xmlns:sodipodi="http://sodipodi.sourceforge.net/DTD/sodipodi-0.dtd"
   xmlns:inkscape="http://www.inkscape.org/namespaces/inkscape"
   width="151.98636"
   height="76.771111"
   viewBox="0 0 151.98636 76.771111"
   version="1.1"
   id="svg4"
   sodipodi:docname="logo.svg"
   inkscape:version="0.92.3 (2405546, 2018-03-11)">
  <metadata
     id="metadata10">
    <rdf:RDF>
      <cc:Work
         rdf:about="">
        <dc:format>image/svg+xml</dc:format>
        <dc:type
           rdf:resource="http://purl.org/dc/dcmitype/StillImage" />
        <dc:title></dc:title>
      </cc:Work>
    </rdf:RDF>
  </metadata>
  <defs
     id="defs8" />
  <sodipodi:namedview
     pagecolor="#ffffff"
     bordercolor="#666666"
     borderopacity="1"
     objecttolerance="10"
     gridtolerance="10"
     guidetolerance="10"
     inkscape:pageopacity="0"
     inkscape:pageshadow="2"
     inkscape:window-width="1920"
     inkscape:window-height="1023"
     id="namedview6"
     showgrid="false"
     inkscape:zoom="2.1073171"
     inkscape:cx="-95.371233"
     inkscape:cy="85.473679"
     inkscape:window-x="0"
     inkscape:window-y="33"
     inkscape:window-maximized="1"
     inkscape:current-layer="g4521"
     fit-margin-top="0"
     fit-margin-left="0"
     fit-margin-right="0"
     fit-margin-bottom="0" />
  <g
     id="g4521"
     transform="translate(-254.91433,-129.2548)">
    <path
       id="path2"
       d="m 343.43179,154.79989 h 12.71516 v -6.69394 h -0.0431 c -0.0292,-4.54788 -1.67214,-8.72374 -4.38321,-11.98412 -0.002,-10e-4 -0.003,-0.004 -0.004,-0.005 -0.77324,-0.92897 -1.63355,-1.78478 -2.56789,-2.55219 -7.6e-4,-9.1e-4 -0.003,-0.002 -0.003,-0.003 -0.11579,-0.0951 -0.23247,-0.18849 -0.3505,-0.28094 -0.003,-0.002 -0.007,-0.005 -0.01,-0.008 -0.11623,-0.0906 -0.23336,-0.18041 -0.35139,-0.26837 -0.003,-0.002 -0.006,-0.004 -0.009,-0.006 -0.11892,-0.0888 -0.23919,-0.17592 -0.36036,-0.26163 0,-4.6e-4 -3.8e-4,-4.6e-4 -3.8e-4,-4.6e-4 -0.12297,-0.0871 -0.24638,-0.17323 -0.37159,-0.25715 -0.008,-0.005 -0.0153,-0.01 -0.0229,-0.0153 -0.62291,-0.41781 -1.27184,-0.80061 -1.94365,-1.14393 -0.004,-0.002 -0.009,-0.004 -0.0139,-0.007 -0.26747,-0.13642 -0.53898,-0.26702 -0.81363,-0.39133 -0.002,-9e-4 -0.004,-0.002 -0.007,-0.003 -0.13643,-0.061 -0.27241,-0.12117 -0.40974,-0.17951 -0.002,-4.5e-4 -0.003,-0.001 -0.005,-0.002 -0.13284,-0.0557 -0.26658,-0.10995 -0.40076,-0.16335 -0.003,-9e-4 -0.005,-0.002 -0.008,-0.003 -0.10097,-0.0399 -0.20329,-0.0781 -0.30516,-0.11668 -0.0426,-0.0157 -0.0848,-0.0323 -0.12746,-0.048 -0.0906,-0.0332 -0.18175,-0.0651 -0.2733,-0.0969 -0.0556,-0.0193 -0.1113,-0.0399 -0.16784,-0.0588 -0.0592,-0.0202 -0.11938,-0.0386 -0.17862,-0.0583 -0.0902,-0.0296 -0.17995,-0.0597 -0.27061,-0.088 -0.0292,-0.009 -0.0583,-0.0171 -0.0875,-0.026 -0.11937,-0.0363 -0.2392,-0.0727 -0.35992,-0.10681 -7.6e-4,0 -0.002,-4.5e-4 -0.002,-4.5e-4 -0.14316,-0.0408 -0.28766,-0.0803 -0.43262,-0.11758 -0.002,-4.5e-4 -0.004,-8.9e-4 -0.006,-0.001 -0.0682,-0.0179 -0.13732,-0.0341 -0.20643,-0.0507 -0.0857,-0.0211 -0.17188,-0.0431 -0.2585,-0.0633 -3.8e-4,0 -7.6e-4,0 -0.002,0 -0.1472,-0.0346 -0.29574,-0.0669 -0.44429,-0.0974 -0.005,-8.9e-4 -0.01,-0.002 -0.0148,-0.003 -0.14899,-0.0305 -0.29888,-0.0592 -0.44922,-0.0862 -0.004,-9e-4 -0.009,-0.001 -0.0134,-0.002 -0.15124,-0.0274 -0.30293,-0.0525 -0.45506,-0.0758 -0.003,-4.5e-4 -0.008,-9e-4 -0.0112,-0.002 -0.15303,-0.0233 -0.30651,-0.0449 -0.46089,-0.0646 -0.003,-4.5e-4 -0.006,-9e-4 -0.009,-0.001 -0.15527,-0.0193 -0.31055,-0.0373 -0.46672,-0.0534 -0.002,0 -0.005,-4.5e-4 -0.007,-9e-4 -0.15663,-0.0157 -0.31415,-0.0296 -0.47167,-0.0417 -0.002,0 -0.003,0 -0.006,-4.5e-4 -0.15797,-0.0121 -0.31728,-0.0224 -0.4766,-0.0305 -0.002,0 -0.003,0 -0.003,0 -0.16021,-0.008 -0.32132,-0.0144 -0.48199,-0.0184 -7.6e-4,0 -0.002,0 -0.002,0 -0.16201,-0.004 -0.32446,-0.006 -0.48692,-0.006 -10.45245,0 -18.97693,8.52449 -18.97693,18.97694 0,0 0,0.14809 0,0.14809 h 0.0112 v 12.71159 l -19.1717,0.0723 -0.01,25.88494 -0.002,7.6e-4 c -0.0924,3.37839 -2.91166,6.10337 -6.31159,6.10337 -3.39947,0 -6.18232,-2.72631 -6.27477,-6.10424 h -0.003 v -0.17323 -25.8634 h -10.61401 v -0.0153 h -20.8631 v 12.76334 h 18.82749 v 13.28871 l -9.1e-4,0.003 c 0,10.45245 8.51195,18.97424 18.9639,18.97424 0.16291,0 0.32492,-0.002 0.48648,-0.006 7.6e-4,0 0.002,0 0.002,0 0.16111,-0.004 0.32177,-0.0103 0.48153,-0.0184 0.002,0 0.003,-3.8e-4 0.004,-3.8e-4 0.15932,-0.008 0.31774,-0.0184 0.47615,-0.0305 0.002,0 0.004,0 0.006,-3.8e-4 0.15752,-0.0121 0.31459,-0.0256 0.47077,-0.0417 0.003,0 0.005,-3.8e-4 0.009,-7.6e-4 0.0395,-0.004 0.079,-0.009 0.11803,-0.0134 0.11937,-0.013 0.23919,-0.026 0.35767,-0.0413 0.15393,-0.0193 0.30696,-0.0408 0.45954,-0.0642 0.004,-7.6e-4 0.009,-0.002 0.0126,-0.002 0.15169,-0.0233 0.30337,-0.0489 0.45371,-0.0758 0.002,0 0.003,-3.8e-4 0.004,-7.6e-4 0.0853,-0.0153 0.16963,-0.0323 0.25445,-0.0485 0.0678,-0.013 0.13598,-0.0251 0.2033,-0.0391 0.006,-7.5e-4 0.0112,-0.002 0.0171,-0.003 0.14765,-0.0305 0.29529,-0.0628 0.44204,-0.0969 0.003,-3.8e-4 0.005,-7.6e-4 0.008,-0.002 0.0696,-0.0162 0.13867,-0.0341 0.20823,-0.0507 0.0835,-0.0206 0.16694,-0.0404 0.25042,-0.0615 0.0539,-0.0139 0.1077,-0.0292 0.16111,-0.0435 0.0974,-0.026 0.19476,-0.0516 0.29125,-0.079 0.0597,-0.0171 0.11848,-0.0354 0.17772,-0.0529 0.088,-0.026 0.17592,-0.0512 0.26388,-0.0785 0.0862,-0.0269 0.17143,-0.0557 0.25714,-0.0839 0.061,-0.0198 0.12252,-0.039 0.18356,-0.0597 0.0839,-0.0283 0.16694,-0.0583 0.24996,-0.0875 0.0628,-0.0224 0.12521,-0.0435 0.18759,-0.0664 0.0911,-0.0332 0.18176,-0.0687 0.27241,-0.10366 0.0525,-0.0198 0.10501,-0.0395 0.15707,-0.0597 0.0987,-0.0391 0.19656,-0.0799 0.2944,-0.12027 0.0435,-0.0179 0.0875,-0.035 0.13059,-0.0534 0.0996,-0.0422 0.19836,-0.0857 0.29709,-0.12969 0.0422,-0.0184 0.0844,-0.0364 0.12611,-0.0552 0.10142,-0.0458 0.2015,-0.0929 0.30202,-0.14047 0.0372,-0.018 0.075,-0.035 0.11175,-0.0529 0.10187,-0.0489 0.20284,-0.0996 0.30337,-0.1499 0.0364,-0.0184 0.0731,-0.0364 0.10905,-0.0548 0.11085,-0.0565 0.2199,-0.11443 0.3294,-0.17322 0.0233,-0.0126 0.0476,-0.0247 0.0709,-0.0372 0.11399,-0.0619 0.22753,-0.12566 0.34017,-0.18983 0.0198,-0.0112 0.0399,-0.0225 0.0597,-0.0332 0.11354,-0.0655 0.22618,-0.13193 0.33837,-0.19925 0.0179,-0.0108 0.0359,-0.0211 0.0539,-0.0319 0.24683,-0.14989 0.49006,-0.30517 0.72971,-0.46583 0.0121,-0.008 0.0251,-0.0161 0.0372,-0.0247 0.11982,-0.0803 0.23785,-0.16245 0.35543,-0.24548 0.005,-0.003 0.0112,-0.008 0.0166,-0.0112 0.11399,-0.0812 0.22753,-0.16335 0.33973,-0.24637 0.01,-0.008 0.0198,-0.0144 0.0301,-0.022 0.0992,-0.074 0.19746,-0.14945 0.2953,-0.22529 0.0242,-0.0189 0.0485,-0.0368 0.0722,-0.0557 0.10187,-0.0794 0.20239,-0.16066 0.30202,-0.24234 0.0157,-0.0126 0.0314,-0.0251 0.0471,-0.0377 0.34825,-0.28587 0.68573,-0.5843 1.01244,-0.89351 0.002,-0.002 0.003,-0.003 0.004,-0.003 0.10816,-0.10277 0.21496,-0.20644 0.32087,-0.3119 0.002,-7.6e-4 0.003,-0.003 0.004,-0.004 0.31773,-0.31504 0.62425,-0.64219 0.91909,-0.97923 0.005,-0.005 0.009,-0.0108 0.0144,-0.0157 0.0889,-0.10232 0.17682,-0.20554 0.26343,-0.3092 0.0112,-0.0135 0.0229,-0.0265 0.0341,-0.0399 0.0933,-0.11264 0.18535,-0.22663 0.27644,-0.34107 0.002,-0.002 0.003,-0.004 0.005,-0.006 0.0857,-0.10816 0.17009,-0.21766 0.25356,-0.32806 0.009,-0.0121 0.0188,-0.0242 0.0283,-0.0368 1.00122,-1.32658 1.83235,-2.78824 2.46064,-4.35132 7.6e-4,-0.002 0.002,-0.004 0.003,-0.006 0.85851,-2.13707 1.43384,-4.46577 1.45179,-6.89947 l 0.002,0.002 v -13.413 h 6.38609 v 31.64274 h 12.62363 v -31.64274 h 25.3657 v 31.54893 h 12.70213 v -31.54893 h 38.04635 v -12.68621 h -38.04635 v -12.74252 c -3.8e-4,-4.6e-4 -3.8e-4,-4.6e-4 -3.8e-4,-4.6e-4 0,-3.46589 2.84479,-6.31428 6.31113,-6.31428 3.46589,0 6.29992,2.87755 6.29992,6.34388 -7.6e-4,0 0.003,-0.003 3.8e-4,-0.004 v 6.38518 h 12.68959 l 0.0171,-6.38518 h -0.007 c 0,-10.45246 -8.52494,-18.9774 -18.97739,-18.9774 -0.16201,0 -0.32401,0.002 -0.48557,0.006 -7.6e-4,0 -0.002,4.4e-4 -0.003,4.4e-4 -0.16067,0.004 -0.32043,0.01 -0.47974,0.018 -0.002,0 -0.004,4.4e-4 -0.005,4.4e-4 -0.15887,0.008 -0.31683,0.018 -0.47436,0.0301 -0.003,0 -0.005,4.5e-4 -0.009,4.5e-4 -0.15617,0.0121 -0.31234,0.0256 -0.46807,0.0413 -0.003,4.5e-4 -0.007,4.5e-4 -0.0108,8.9e-4 -0.15483,0.0157 -0.30876,0.0328 -0.46224,0.0525 -0.004,4.5e-4 -0.009,9e-4 -0.0139,0.002 -0.15213,0.0198 -0.30427,0.0404 -0.4555,0.0633 -7.6e-4,4.5e-4 -0.002,4.5e-4 -0.002,4.5e-4 -0.0884,0.0135 -0.17637,0.0287 -0.26433,0.0435 -0.0705,0.0117 -0.14092,0.022 -0.21093,0.0346 -0.0525,0.009 -0.10456,0.0202 -0.15752,0.0301 -0.10277,0.0193 -0.20554,0.0381 -0.30741,0.0588 -0.039,0.008 -0.0776,0.0171 -0.11668,0.0251 -0.11623,0.0242 -0.23247,0.0489 -0.34825,0.0758 -0.0211,0.005 -0.0422,0.0103 -0.0637,0.0153 -0.12835,0.0301 -0.2567,0.0606 -0.3846,0.0933 -0.048,0.0121 -0.0951,0.026 -0.14316,0.0386 -0.10546,0.0278 -0.21092,0.0557 -0.31549,0.0853 -0.0256,0.007 -0.0503,0.0148 -0.0754,0.022 -0.12117,0.035 -0.24189,0.07 -0.36172,0.10726 -0.1077,0.0332 -0.21496,0.0682 -0.32177,0.10322 -0.0354,0.0117 -0.0718,0.0229 -0.1068,0.0346 -0.0978,0.0332 -0.19432,0.0673 -0.29126,0.10142 -0.0516,0.018 -0.10367,0.0359 -0.15483,0.0548 -0.0722,0.026 -0.14406,0.0538 -0.21676,0.0812 -0.0731,0.0278 -0.1463,0.0543 -0.219,0.083 -0.0682,0.0265 -0.13508,0.0543 -0.20285,0.0817 -0.074,0.0301 -0.14854,0.0597 -0.22214,0.0907 -0.066,0.0278 -0.13194,0.057 -0.19791,0.0853 -0.0763,0.0332 -0.15258,0.066 -0.22888,0.10008 -0.0507,0.0229 -0.10097,0.0467 -0.15168,0.07 -0.0893,0.0408 -0.17861,0.0817 -0.26747,0.12431 -0.0624,0.0301 -0.12431,0.0615 -0.18669,0.092 -0.0709,0.0345 -0.14182,0.0691 -0.21183,0.10501 -0.0871,0.0435 -0.17277,0.0893 -0.25849,0.13463 -0.048,0.0251 -0.0965,0.0494 -0.14406,0.0754 -0.0906,0.0489 -0.1804,0.0992 -0.27016,0.14944 -0.0431,0.0242 -0.0866,0.048 -0.12925,0.0722 -0.11848,0.0669 -0.23515,0.13553 -0.35184,0.20554 -0.009,0.005 -0.0184,0.0103 -0.0274,0.0162 -0.12252,0.0736 -0.24414,0.14854 -0.36441,0.22483 -0.008,0.004 -0.0153,0.009 -0.0229,0.0139 -0.12207,0.0776 -0.24324,0.15618 -0.36351,0.23651 -0.005,0.003 -0.0103,0.007 -0.0157,0.0103 -0.12072,0.0808 -0.24009,0.16291 -0.35857,0.24593 -0.005,0.004 -0.0108,0.007 -0.0161,0.0108 -0.11354,0.0799 -0.22663,0.16156 -0.33882,0.24414 -0.0103,0.007 -0.0206,0.0148 -0.031,0.0224 -0.10905,0.0808 -0.2172,0.16291 -0.32446,0.24548 -0.0126,0.01 -0.0256,0.0193 -0.0381,0.0296 -0.10501,0.0817 -0.20913,0.16425 -0.31235,0.24818 -0.0139,0.0112 -0.0283,0.022 -0.0417,0.0332 -0.46359,0.37742 -0.90832,0.77638 -1.33331,1.19554 -0.003,0.002 -0.005,0.005 -0.008,0.007 -0.42634,0.42096 -0.83338,0.86166 -1.21888,1.32075 -0.002,0.003 -0.004,0.005 -0.007,0.008 -0.0942,0.11309 -0.18759,0.22708 -0.27959,0.34197 -0.002,0.003 -0.004,0.006 -0.007,0.009 -0.0902,0.1131 -0.17906,0.22753 -0.26657,0.34242 -0.004,0.005 -0.009,0.0103 -0.0126,0.0157 -0.0871,0.11444 -0.17233,0.22977 -0.2567,0.346 -0.004,0.006 -0.009,0.0126 -0.0135,0.0184 -0.0839,0.11623 -0.16695,0.23381 -0.24862,0.35273 -0.004,0.006 -0.008,0.0112 -0.0121,0.0171 -0.0794,0.11533 -0.15708,0.23156 -0.23382,0.34869 -0.007,0.0103 -0.0139,0.0206 -0.0206,0.0314 -0.65252,1.00077 -1.21259,2.06661 -1.66855,3.18676 -0.006,0.0157 -0.0134,0.0314 -0.0193,0.0471 -0.0512,0.12565 -0.10008,0.25266 -0.14855,0.38011 -0.006,0.0153 -0.0117,0.0305 -0.0175,0.0462 -0.0521,0.13777 -0.10232,0.27689 -0.15124,0.41646 -3.8e-4,10e-4 -7.6e-4,0.003 -0.002,0.005 -0.0503,0.14271 -0.0978,0.28631 -0.14406,0.43082 -7.6e-4,0.003 -0.002,0.005 -0.003,0.008 -0.0458,0.14361 -0.0907,0.28811 -0.13284,0.43307 -0.002,0.003 -0.002,0.007 -0.003,0.01 -0.0431,0.14675 -0.0844,0.29395 -0.12431,0.44204 0,9.1e-4 -3.8e-4,0.002 -3.8e-4,0.003 -0.0794,0.29709 -0.15169,0.59687 -0.21631,0.89935 -7.6e-4,0.004 -0.002,0.007 -0.002,0.0103 -0.0319,0.14765 -0.0619,0.29664 -0.0897,0.44564 -0.002,0.005 -0.002,0.0108 -0.003,0.0162 -0.0278,0.14765 -0.0539,0.29574 -0.0781,0.44474 -0.002,0.007 -0.002,0.0139 -0.003,0.0206 -0.0229,0.14182 -0.044,0.28453 -0.0642,0.42724 -0.002,0.0166 -0.004,0.0332 -0.007,0.0498 -0.0197,0.14675 -0.0377,0.29305 -0.0539,0.44025 -7.6e-4,0.007 -0.002,0.0144 -0.003,0.022 -0.0157,0.14181 -0.0296,0.28363 -0.0422,0.42634 -0.002,0.0211 -0.004,0.0422 -0.005,0.0633 -0.0126,0.14541 -0.0229,0.29171 -0.0319,0.43801 -3.8e-4,0.009 -7.6e-4,0.0175 -0.002,0.0265 -0.009,0.15258 -0.0161,0.30561 -0.0215,0.45865 -3.8e-4,0.007 -3.8e-4,0.0143 -7.6e-4,0.0215 -0.005,0.15482 -0.009,0.3101 -0.0103,0.46627 0,0.003 0,0.007 0,0.0103 h -0.061 v 12.9741 h -25.36569 l -3.8e-4,-12.8103 c 0,0 3.8e-4,4.5e-4 3.8e-4,0 0,-3.46859 2.87441,-6.34571 6.34658,-6.34571 3.47263,0 6.30486,2.82908 6.30486,6.29768 0,0.0925 -0.002,0.18445 -0.006,0.276 v 6.29228 z"
       inkscape:connector-curvature="0"
       style="fill:#ffffff;stroke-width:0.379962" />
  </g>
</svg>
